<?xml version="1.0" encoding="utf-8"?>
<!-- Generator: Adobe Illustrator 27.5.0, SVG Export Plug-In . SVG Version: 6.00 Build 0)  -->
<svg version="1.1" xmlns="http://www.w3.org/2000/svg" xmlns:xlink="http://www.w3.org/1999/xlink" x="0px" y="0px"
	 viewBox="0 0 500 500" style="enable-background:new 0 0 500 500;" xml:space="preserve">
<g id="BACKGROUND">
	<rect id="XMLID_2706_" style="fill:#FFFFFF;" width="500" height="500"/>
</g>
<g id="OBJECTS_2_">
	<g id="_x30_4-books">
		<g id="XMLID_979_">
			<g id="XMLID_998_">
				<g id="XMLID_999_" style="enable-background:new    ;">
					<g id="XMLID_1004_">
						<polygon id="XMLID_655_" style="fill:#AB291D;" points="155.446,148.989 155.446,150.535 101.877,181.463 101.877,179.917 
													"/>
					</g>
					<g id="XMLID_1002_">
						<polygon id="XMLID_654_" style="fill:#9B2616;" points="101.877,179.917 101.877,181.463 64.378,159.813 64.378,158.267 
													"/>
					</g>
					<g id="XMLID_1000_">
						<polygon id="XMLID_652_" style="fill:#6C1A0F;" points="155.446,148.989 101.877,179.917 65.717,159.04 117.947,127.339 
													"/>
					</g>
				</g>
			</g>
			<polygon id="XMLID_651_" style="fill:#6C1A0F;" points="68.396,152.855 64.378,150.535 64.378,158.267 68.396,160.587 			"/>
			<g id="XMLID_989_">
				<g id="XMLID_990_" style="enable-background:new    ;">
					<g id="XMLID_995_">
						<polygon id="XMLID_650_" style="fill:#C5C5C5;" points="152.768,142.803 152.768,148.989 101.877,178.37 101.877,172.185 
													"/>
					</g>
					<g id="XMLID_993_">
						<polygon id="XMLID_649_" style="fill:#898989;" points="67.057,152.081 67.057,158.267 101.877,178.37 101.877,172.185 						
							"/>
					</g>
					<g id="XMLID_991_">
						<polygon id="XMLID_648_" style="fill:#DCDCDC;" points="117.927,122.887 67.057,152.081 101.877,172.185 152.161,142.652 
													"/>
					</g>
				</g>
			</g>
			<g id="XMLID_981_">
				<g id="XMLID_982_" style="enable-background:new    ;">
					<g id="XMLID_987_">
						<polygon id="XMLID_646_" style="fill:#AB291D;" points="155.446,139.71 155.446,141.257 101.877,172.185 101.877,170.638 
													"/>
					</g>
					<g id="XMLID_985_">
						<polygon id="XMLID_645_" style="fill:#9B2616;" points="101.877,170.638 101.877,172.185 64.378,150.535 64.378,148.988 
													"/>
					</g>
					<g id="XMLID_983_">
						<polygon id="XMLID_644_" style="fill:#DE361F;" points="155.446,139.71 101.877,170.638 64.378,148.988 117.947,118.06 						
							"/>
					</g>
				</g>
			</g>
			<polygon id="XMLID_643_" style="fill:#9B2616;" points="65.717,160.587 64.378,159.813 64.378,148.988 65.717,149.762 			"/>
		</g>
		<g id="XMLID_952_">
			<g id="XMLID_971_">
				<g id="XMLID_972_" style="enable-background:new    ;">
					<g id="XMLID_977_">
						<polygon id="XMLID_642_" style="fill:#EF881F;" points="151.428,137.391 151.428,138.937 101.877,167.546 101.877,165.999 
													"/>
					</g>
					<g id="XMLID_975_">
						<polygon id="XMLID_640_" style="fill:#E88102;" points="101.877,165.999 101.877,167.546 69.735,148.988 69.735,147.442 
													"/>
					</g>
					<g id="XMLID_973_">
						<polygon id="XMLID_639_" style="fill:#8A4C01;" points="151.428,137.391 101.877,165.999 71.074,148.215 120.626,119.607 
													"/>
					</g>
				</g>
			</g>
			<polygon id="XMLID_638_" style="fill:#8A4C01;" points="72.413,141.256 71.074,140.483 71.074,148.215 72.413,148.988 			"/>
			<g id="XMLID_962_">
				<g id="XMLID_963_" style="enable-background:new    ;">
					<g id="XMLID_968_">
						<polygon id="XMLID_637_" style="fill:#C5C5C5;" points="148.75,131.205 148.75,137.391 101.877,164.453 101.877,158.267 
													"/>
					</g>
					<g id="XMLID_966_">
						<polygon id="XMLID_636_" style="fill:#898989;" points="72.413,141.256 72.413,147.442 101.877,164.453 101.877,158.267 
													"/>
					</g>
					<g id="XMLID_964_">
						<polygon id="XMLID_634_" style="fill:#DCDCDC;" points="117.947,114.967 72.413,141.256 101.877,158.267 147.41,131.978 
													"/>
					</g>
				</g>
			</g>
			<g id="XMLID_954_">
				<g id="XMLID_955_" style="enable-background:new    ;">
					<g id="XMLID_960_">
						<polygon id="XMLID_633_" style="fill:#EF881F;" points="151.428,128.112 151.428,129.658 101.877,158.267 101.877,156.721 
													"/>
					</g>
					<g id="XMLID_958_">
						<polygon id="XMLID_632_" style="fill:#E88102;" points="101.877,156.721 101.877,158.267 69.735,139.71 69.735,138.164 						
							"/>
					</g>
					<g id="XMLID_956_">
						<polygon id="XMLID_631_" style="fill:#FBAB20;" points="151.428,128.112 101.877,156.721 69.735,138.164 119.286,109.555 
													"/>
					</g>
				</g>
			</g>
			<polygon id="XMLID_630_" style="fill:#E88102;" points="71.074,149.762 69.735,148.988 69.735,138.164 71.074,138.937 			"/>
		</g>
	</g>
	<g id="_x30_7-file-folder">
		<g id="XMLID_933_">
			<g id="XMLID_949_">
				<polygon id="XMLID_627_" style="fill:#D37511;" points="216.462,119.872 216.462,174.972 229.717,182.625 231.333,181.319 
					231.333,126.338 229.717,127.525 				"/>
				<polygon id="XMLID_626_" style="fill:#EF881F;" points="229.717,182.625 265.505,152.779 265.505,102.271 229.717,127.525 				
					"/>
			</g>
			<g id="XMLID_945_">
				<polygon id="XMLID_625_" style="fill:#FBAB20;" points="265.505,102.271 264.18,101.506 228.391,126.76 229.717,127.525 				"/>
				<polygon id="XMLID_624_" style="fill:#FBAB20;" points="216.462,119.872 261.529,99.975 262.854,100.74 217.787,120.638 				"/>
				<polygon id="XMLID_623_" style="fill:#FBAB20;" points="229.717,127.525 229.717,125.995 219.289,119.974 216.462,119.872 				
					"/>
			</g>
			<polygon id="XMLID_621_" style="fill:#8A4C01;" points="219.289,119.974 229.717,125.995 262.986,102.348 262.854,100.74 			"/>
			<g id="XMLID_941_">
				<path id="XMLID_408_" style="fill:#B3B3B3;" d="M223.102,161.582c2.197,1.268,3.971,4.342,3.964,6.866
					c-0.007,2.524-1.793,3.542-3.99,2.274c-2.197-1.268-3.971-4.341-3.964-6.866C219.12,161.332,220.905,160.314,223.102,161.582z"
					/>
				<path id="XMLID_407_" style="fill:#313132;" d="M222.799,162.473c1.831,1.057,3.309,3.618,3.303,5.722
					c-0.006,2.104-1.494,2.952-3.325,1.895c-1.831-1.057-3.309-3.618-3.303-5.721C219.48,162.264,220.968,161.416,222.799,162.473z"
					/>
			</g>
			<g id="XMLID_934_">
				<polygon id="XMLID_620_" style="fill:#F2F2F2;" points="219.113,124.464 227.066,129.056 227.066,152.014 219.113,147.422 				
					"/>
				<polygon id="XMLID_618_" style="fill:#999999;" points="220.438,126.76 220.439,128.29 225.74,131.352 225.74,129.821 				"/>
				<polygon id="XMLID_617_" style="fill:#CCCCCC;" points="220.438,129.821 220.439,130.587 225.74,133.647 225.74,132.882 				"/>
				<polygon id="XMLID_615_" style="fill:#CCCCCC;" points="220.438,131.449 220.439,132.214 225.74,135.275 225.74,134.51 				"/>
				<polygon id="XMLID_614_" style="fill:#CCCCCC;" points="220.438,137.598 220.439,138.363 225.74,141.424 225.74,140.659 				"/>
				<polygon id="XMLID_612_" style="fill:#CCCCCC;" points="220.438,139.226 220.439,139.991 225.74,143.052 225.74,142.287 				"/>
			</g>
		</g>
		<g id="XMLID_914_">
			<polygon id="XMLID_611_" style="fill:#6C1A0F;" points="235.019,129.056 246.948,135.079 280.085,112.22 280.085,109.159 			"/>
			<g id="XMLID_929_">
				<polygon id="XMLID_608_" style="fill:#922414;" points="233.693,128.29 233.693,183.39 246.948,191.043 249.599,188.915 
					249.599,133.934 246.948,135.943 				"/>
				<polygon id="XMLID_607_" style="fill:#AB291D;" points="246.948,191.043 282.737,161.197 282.736,110.689 246.948,135.943 				
					"/>
			</g>
			<g id="XMLID_925_">
				<polygon id="XMLID_606_" style="fill:#DE361F;" points="282.736,110.689 281.411,109.924 245.623,135.178 246.948,135.943 				
					"/>
				<polygon id="XMLID_603_" style="fill:#DE361F;" points="233.693,128.29 278.76,108.393 280.085,109.159 235.019,129.056 				"/>
				<polygon id="XMLID_602_" style="fill:#DE361F;" points="246.948,135.943 246.948,134.413 236.344,128.29 233.693,128.29 				"/>
			</g>
			<g id="XMLID_922_">
				<path id="XMLID_406_" style="fill:#B3B3B3;" d="M240.284,169.902c2.197,1.268,3.971,4.342,3.964,6.866
					c-0.007,2.524-1.793,3.542-3.99,2.274c-2.197-1.268-3.971-4.342-3.964-6.866C236.301,169.651,238.087,168.633,240.284,169.902z"
					/>
				<path id="XMLID_404_" style="fill:#313132;" d="M239.98,170.792c1.831,1.057,3.309,3.618,3.303,5.722
					c-0.006,2.104-1.494,2.952-3.325,1.895c-1.831-1.057-3.309-3.618-3.303-5.722C236.661,170.584,238.15,169.735,239.98,170.792z"
					/>
			</g>
			<g id="XMLID_915_">
				<polygon id="XMLID_601_" style="fill:#F2F2F2;" points="236.344,132.882 244.297,137.474 244.247,160.333 236.294,155.742 				
					"/>
				<polygon id="XMLID_599_" style="fill:#999999;" points="237.67,135.178 237.67,136.708 242.972,139.77 242.972,138.239 				"/>
				<polygon id="XMLID_598_" style="fill:#CCCCCC;" points="237.67,138.239 237.67,138.935 242.972,141.996 242.972,141.3 				"/>
				<polygon id="XMLID_597_" style="fill:#CCCCCC;" points="237.619,139.768 237.62,140.534 242.972,143.624 242.972,142.831 				
					"/>
				<polygon id="XMLID_595_" style="fill:#CCCCCC;" points="237.67,145.892 237.669,146.711 242.921,149.743 242.921,148.979 				
					"/>
				<polygon id="XMLID_594_" style="fill:#CCCCCC;" points="237.67,147.422 237.67,148.187 242.972,151.279 242.972,150.483 				"/>
			</g>
		</g>
	</g>
	<g id="_x31_8-signed-document">
		<g id="XMLID_910_">
			<polygon id="XMLID_403_" style="fill:#DADFE1;" points="155.446,257.306 97.859,290.554 96.52,289.78 96.52,290.554 
				97.859,291.327 155.446,258.079 			"/>
			<polygon id="XMLID_593_" style="fill:#A9BBCC;" points="64.378,271.224 64.378,271.996 97.859,291.327 97.859,290.554 			"/>
			<polygon id="XMLID_402_" style="fill:#F1F1F1;" points="155.446,257.306 97.859,290.554 64.378,271.224 121.965,237.976 			"/>
		</g>
		<g id="XMLID_879_">
			<polygon id="XMLID_591_" style="fill:#808080;" points="116.608,245.708 111.251,248.801 115.269,251.12 120.626,248.027 			"/>
			<g id="XMLID_906_">
				<polygon id="XMLID_590_" style="fill:#4D4D4D;" points="143.393,254.986 144.732,254.213 127.322,244.161 125.983,244.934 				
					"/>
				<polygon id="XMLID_589_" style="fill:#4D4D4D;" points="139.375,255.759 140.715,254.986 125.983,246.481 124.644,247.254 				
					"/>
			</g>
			<g id="XMLID_901_">
				<polygon id="XMLID_588_" style="fill:#CCCCCC;" points="121.966,250.347 122.634,249.96 134.688,256.919 134.019,257.306 				
					"/>
				<polygon id="XMLID_584_" style="fill:#CCCCCC;" points="121.295,250.734 120.626,251.12 139.375,261.945 140.044,261.559 				
					"/>
				<polygon id="XMLID_583_" style="fill:#CCCCCC;" points="119.956,251.507 119.287,251.893 135.357,261.172 136.027,260.785 				
					"/>
				<polygon id="XMLID_582_" style="fill:#CCCCCC;" points="118.616,252.28 117.947,252.666 131.34,260.399 132.009,260.012 				"/>
			</g>
			<g id="XMLID_896_">
				<polygon id="XMLID_581_" style="fill:#CCCCCC;" points="108.573,250.347 109.242,249.96 134.689,264.651 134.018,265.038 				
					"/>
				<polygon id="XMLID_578_" style="fill:#CCCCCC;" points="107.903,250.734 107.233,251.12 132.679,265.811 133.348,265.425 				
					"/>
				<polygon id="XMLID_577_" style="fill:#CCCCCC;" points="106.564,251.507 105.895,251.893 131.34,266.584 132.009,266.198 				
					"/>
				<polygon id="XMLID_576_" style="fill:#CCCCCC;" points="105.224,252.28 104.555,252.666 117.947,260.399 118.617,260.012 				
					"/>
			</g>
			<g id="XMLID_891_">
				<polygon id="XMLID_575_" style="fill:#CCCCCC;" points="101.877,254.213 102.546,253.826 127.995,268.516 127.322,268.904 				
					"/>
				<polygon id="XMLID_573_" style="fill:#CCCCCC;" points="101.207,254.6 100.537,254.986 125.983,269.677 126.652,269.291 				"/>
				<polygon id="XMLID_572_" style="fill:#CCCCCC;" points="99.868,255.373 99.199,255.759 124.644,270.45 125.314,270.064 				"/>
				<polygon id="XMLID_571_" style="fill:#CCCCCC;" points="98.528,256.146 97.859,256.532 111.251,264.265 111.921,263.878 				"/>
			</g>
			<g id="XMLID_886_">
				<polygon id="XMLID_569_" style="fill:#CCCCCC;" points="95.182,258.079 95.851,257.692 121.299,272.382 120.626,272.77 				"/>
				<polygon id="XMLID_568_" style="fill:#CCCCCC;" points="94.511,258.466 93.842,258.852 119.287,273.543 119.957,273.156 				"/>
				<polygon id="XMLID_567_" style="fill:#CCCCCC;" points="93.173,259.239 92.503,259.625 117.947,274.316 118.617,273.93 				"/>
				<polygon id="XMLID_566_" style="fill:#CCCCCC;" points="91.832,260.012 91.163,260.398 104.556,268.131 105.226,267.744 				"/>
			</g>
			<g id="XMLID_883_">
				<polygon id="XMLID_565_" style="fill:#4D4D4D;" points="107.903,280.116 107.233,280.502 99.199,275.863 99.868,275.476 				"/>
				<polygon id="XMLID_564_" style="fill:#4D4D4D;" points="105.225,280.116 104.555,280.502 97.859,276.636 98.528,276.249 				"/>
			</g>
			<g id="XMLID_880_">
				<path id="XMLID_563_" style="fill:none;stroke:#4D4D4D;stroke-width:0.1779;stroke-miterlimit:10;" d="M95.182,279.73
					c0,0,7.719-7.757,2.775-0.149c-0.063,0.096-0.097,0.21-0.097,0.324l0,0c-0.001,0.329,0.266,0.597,0.596,0.597l0.355,0
					c0.214,0,0.387,0.173,0.388,0.387l0,0c0,0.214,0.174,0.387,0.387,0.387h0.461c0.321,0,0.637,0.084,0.915,0.245l0,0
					c0.567,0.327,1.264,0.327,1.831-0.001l0.758-0.438c0.149-0.086,0.335,0.021,0.335,0.193l0,0c0,0.172-0.186,0.279-0.335,0.193
					l-0.893-0.516c-0.069-0.04-0.154-0.04-0.223,0l-2.567,1.482"/>
				
					<line id="XMLID_562_" style="fill:none;stroke:#4D4D4D;stroke-width:0.1779;stroke-miterlimit:10;" x1="92.502" y1="279.729" x2="103.215" y2="282.822"/>
			</g>
		</g>
	</g>
	<g id="_x31_9-blank-paper">
		<g id="XMLID_875_">
			<polygon id="XMLID_400_" style="fill:#DADFE1;" points="433.805,255.373 376.218,288.62 374.879,287.847 374.879,292.486 
				376.218,293.259 433.805,260.012 			"/>
			<polygon id="XMLID_561_" style="fill:#A9BBCC;" points="342.738,269.29 342.738,273.929 376.218,293.259 376.218,288.62 			"/>
			<polygon id="XMLID_399_" style="fill:#F1F1F1;" points="433.805,255.373 376.218,288.62 342.738,269.29 400.324,236.043 			"/>
		</g>
		<g id="XMLID_872_">
			<polygon id="XMLID_560_" style="fill:#CCCCCC;" points="433.805,255.373 423.091,249.189 423.091,261.56 			"/>
			<path id="XMLID_558_" style="fill:#F1F1F1;" d="M424.43,260.787c0,0,8.035-7.732,8.035-13.918c0,0-2.678,6.186-8.035,3.093
				l-1.339-0.773l0,12.371L424.43,260.787z"/>
		</g>
		<g id="XMLID_863_">
			<g id="XMLID_868_">
				<polygon id="XMLID_557_" style="fill:#D0D3D4;" points="433.805,256.919 433.805,256.146 376.219,289.393 376.219,290.167 				
					"/>
				<polygon id="XMLID_555_" style="fill:#D0D3D4;" points="433.805,258.466 433.805,257.693 376.219,290.94 376.219,291.713 				
					"/>
				<polygon id="XMLID_554_" style="fill:#D0D3D4;" points="433.805,260.012 433.805,259.238 376.219,292.486 376.219,293.259 				
					"/>
			</g>
			<g id="XMLID_864_">
				<polygon id="XMLID_553_" style="fill:#A0B2C1;" points="376.219,289.393 376.219,290.167 342.738,270.837 342.737,270.063 				
					"/>
				<polygon id="XMLID_552_" style="fill:#A0B2C1;" points="376.219,290.944 376.219,291.717 342.738,272.387 342.737,271.613 				
					"/>
				<polygon id="XMLID_551_" style="fill:#A0B2C1;" points="376.219,292.486 376.219,293.26 342.738,273.93 342.737,273.156 				"/>
			</g>
		</g>
	</g>
	<g id="_x32_2-book">
		<path id="XMLID_550_" style="fill:#D37511;" d="M361.545,123.142l0,60.186l0.033,0.045c3.193,4.288,8.018,7.065,13.33,7.671l0,0
			l1.337-0.927l-0.014-60.023l-1.322,0.764l0,0c-5.312-0.601-10.137-3.377-13.327-7.666L361.545,123.142z"/>
		<polygon id="XMLID_549_" style="fill:#EF881F;" points="374.908,191.043 414.998,167.898 414.997,107.69 374.908,130.857 		"/>
		<g id="XMLID_855_">
			<polygon id="XMLID_546_" style="fill:#E6E6E6;" points="382.927,133.179 382.927,147.066 408.316,132.408 408.316,118.521 			"/>
			<g id="XMLID_856_">
				<polygon id="XMLID_545_" style="fill:#666666;" points="385.599,134.722 385.598,136.265 405.644,124.692 405.63,123.142 				
					"/>
				<polygon id="XMLID_544_" style="fill:#666666;" points="386.935,137.037 386.935,138.58 404.307,128.55 404.307,127.007 				"/>
				<polygon id="XMLID_542_" style="fill:#B3B3B3;" points="385.6,143.208 385.599,143.98 405.643,132.408 405.642,131.636 				"/>
			</g>
		</g>
		<polygon id="XMLID_541_" style="fill:#8A4C01;" points="364.218,123.149 364.218,123.921 365.554,126.235 369.563,128.55 
			373.572,129.321 374.909,129.314 376.244,129.321 402.971,113.891 402.971,113.091 402.97,100.747 401.634,100.775 
			364.218,122.378 		"/>
		<g id="XMLID_844_">
			<path id="XMLID_539_" style="fill:#E6E6E6;" d="M364.874,124.3l37.429-21.596l9.306,5.4l-37.382,21.595l0,0
				C370.517,129.21,367.153,127.268,364.874,124.3L364.874,124.3z"/>
			<g id="XMLID_845_">
				<polygon id="XMLID_537_" style="fill:#CCCCCC;" points="402.971,103.092 364.218,125.464 364.886,125.85 403.632,103.476 				
					"/>
				<polygon id="XMLID_536_" style="fill:#CCCCCC;" points="404.307,103.867 365.554,126.235 366.222,126.621 404.961,104.247 				
					"/>
				<polygon id="XMLID_535_" style="fill:#CCCCCC;" points="405.644,104.643 366.891,127.007 367.559,127.393 406.29,105.019 				
					"/>
				<polygon id="XMLID_533_" style="fill:#CCCCCC;" points="406.979,105.418 368.227,127.778 368.895,128.164 407.62,105.79 				"/>
				<polygon id="XMLID_532_" style="fill:#CCCCCC;" points="408.316,106.194 369.563,128.55 370.231,128.936 408.984,106.582 				
					"/>
				<polygon id="XMLID_530_" style="fill:#CCCCCC;" points="409.652,106.969 370.9,129.322 371.568,129.707 410.32,107.357 				"/>
				<polygon id="XMLID_529_" style="fill:#CCCCCC;" points="411.038,107.69 372.526,130.093 373.024,130.548 411.609,108.105 				
					"/>
			</g>
		</g>
		<path id="XMLID_526_" style="fill:#FBAB20;" d="M413.661,106.919l-38.753,22.395l0,0c-4.368-0.111-8.384-2.422-10.676-6.142
			l-0.013-0.022l38.752-22.403l-1.336-0.771l-40.089,23.167l0.036,0.049c3.19,4.289,8.015,7.065,13.327,7.666l0,0l40.089-23.167
			L413.661,106.919z"/>
	</g>
	<g id="_x33_0-envelope">
		<polygon id="XMLID_398_" style="fill:#CCCCCC;" points="295.133,376.061 237.546,409.309 236.207,408.536 236.207,410.082 
			237.546,410.855 295.133,377.608 		"/>
		<polygon id="XMLID_396_" style="fill:#F2F2F2;" points="295.133,376.061 237.546,409.309 204.065,389.979 261.652,356.731 		"/>
		<polygon id="XMLID_525_" style="fill:#A9BBCC;" points="204.065,389.979 204.065,391.525 237.546,410.855 237.546,409.309 		"/>
		<polygon id="XMLID_523_" style="fill:#E6E6E6;" points="204.065,389.979 261.652,356.731 264.331,358.277 244.912,380.314 
			206.744,391.525 		"/>
		<path id="XMLID_395_" style="fill:#CCCCCC;" d="M243.318,377.351c0.985,0.569,0.99,1.491,0.012,2.06
			c-0.979,0.569-2.571,0.569-3.556,0c-0.985-0.569-0.99-1.491-0.011-2.06C240.74,376.782,242.333,376.782,243.318,377.351z"/>
	</g>
	<g id="_x33_1-paper-place">
		<polygon id="XMLID_522_" style="fill:#6C1A0F;" points="295.132,264.651 295.133,264.651 256.295,242.228 204.065,272.383 
			242.903,294.806 		"/>
		<polygon id="XMLID_521_" style="fill:#AB291D;" points="256.295,234.496 256.295,242.228 295.132,264.651 295.133,256.919 		"/>
		<polygon id="XMLID_519_" style="fill:#922414;" points="295.133,256.919 295.132,264.651 242.903,294.806 242.903,287.074 		"/>
		<polygon id="XMLID_517_" style="fill:#922414;" points="204.065,272.383 204.065,264.651 256.295,234.496 256.295,242.228 		"/>
		<g id="XMLID_804_">
			<g id="XMLID_825_">
				<polygon id="XMLID_394_" style="fill:#DADFE1;" points="283.08,256.146 240.224,280.888 238.885,280.115 238.885,286.301 
					240.224,287.074 283.08,262.331 				"/>
				<polygon id="XMLID_516_" style="fill:#A9BBCC;" points="214.779,266.198 214.779,272.383 240.224,287.074 240.224,280.888 				
					"/>
				<polygon id="XMLID_392_" style="fill:#F1F1F1;" points="283.08,256.146 240.224,280.888 214.779,266.198 257.634,241.455 				
					"/>
			</g>
			<g id="XMLID_821_">
				<polygon id="XMLID_515_" style="fill:#CCCCCC;" points="283.08,256.146 275.044,251.507 275.044,260.785 				"/>
				<path id="XMLID_513_" style="fill:#F1F1F1;" d="M276.383,260.012c0,0,5.225-5.62,5.225-10.169c0,0-1.286,4.711-5.225,2.437
					l-1.339-0.773l0,9.278L276.383,260.012z"/>
			</g>
			<g id="XMLID_805_">
				<g id="XMLID_813_">
					<polygon id="XMLID_512_" style="fill:#D0D3D4;" points="283.079,256.919 283.08,256.146 240.224,280.888 240.224,281.661 					
						"/>
					<polygon id="XMLID_510_" style="fill:#D0D3D4;" points="283.079,258.465 283.08,257.692 240.224,282.435 240.224,283.207 					
						"/>
					<polygon id="XMLID_509_" style="fill:#D0D3D4;" points="283.079,260.012 283.08,259.238 240.224,283.981 240.224,284.754 					
						"/>
					<polygon id="XMLID_505_" style="fill:#D0D3D4;" points="283.079,261.558 283.08,260.785 240.224,285.527 240.224,286.301 					
						"/>
				</g>
				<g id="XMLID_806_">
					<polygon id="XMLID_504_" style="fill:#A0B2C1;" points="240.224,280.888 240.224,281.661 214.78,266.974 214.779,266.198 					
						"/>
					<polygon id="XMLID_503_" style="fill:#A0B2C1;" points="240.224,282.435 240.224,283.207 214.779,268.517 214.779,267.744 
											"/>
					<polygon id="XMLID_501_" style="fill:#A0B2C1;" points="240.224,283.981 240.224,284.754 214.78,270.064 214.779,269.29 					
						"/>
					<polygon id="XMLID_500_" style="fill:#A0B2C1;" points="240.224,285.527 240.224,286.301 214.78,271.61 214.779,270.837 					
						"/>
				</g>
			</g>
		</g>
		<path id="XMLID_800_" style="fill:#DE361F;" d="M204.065,264.651l9.375,5.412c1.281,0.74,2.079,2.585,1.339,3.866l16.071,9.278
			c0.739-1.281,2.377-1.72,3.658-0.981l7.056,4.074l0,0l1.339,0.773l50.89-29.381l0,0l1.34-0.774l-38.837-22.423L204.065,264.651z
			 M206.743,264.651l49.552-28.608l36.158,20.877l-49.55,28.609l-8.035-4.64c-1.281-0.74-3.278-0.508-4.018,0.773l-14.731-8.505l0,0
			c0.74-1.281-0.058-3.126-1.339-3.866L206.743,264.651z"/>
		<path id="XMLID_496_" style="fill:#AB291D;" d="M242.903,287.074l-8.035-4.639c-1.281-0.74-3.278-0.508-4.018,0.773l0,0
			l-16.071-9.278l0,0c0.74-1.281-0.058-3.126-1.339-3.866l-9.375-5.412v7.732l38.838,22.423L242.903,287.074z"/>
	</g>
	<g id="_x33_5-wall-tasks">
		<g id="XMLID_793_">
			<polygon id="XMLID_391_" style="fill:#8A5B29;" points="358.863,373.76 357.527,372.989 357.526,428.555 358.863,429.327 			"/>
			<polygon id="XMLID_390_" style="fill:#E2BD96;" points="419.016,339.031 417.68,338.259 357.527,372.989 358.863,373.76 			"/>
			<polygon id="XMLID_388_" style="fill:#C0874F;" points="358.863,373.76 358.863,429.327 419.016,394.598 419.016,339.031 			"/>
		</g>
		<g id="XMLID_383_">
			<polygon id="XMLID_387_" style="fill:#333333;" points="360.2,374.532 360.2,427.012 417.679,393.826 417.68,341.346 			"/>
			<g id="XMLID_787_">
				<polygon id="XMLID_386_" style="fill:#8A5B29;" points="417.68,341.346 417.679,393.826 416.343,393.054 416.343,342.118 				
					"/>
				<polygon id="XMLID_384_" style="fill:#E2BD96;" points="416.343,393.054 360.2,425.468 360.2,427.012 417.679,393.826 				"/>
			</g>
		</g>
		<g id="XMLID_742_">
			<g id="XMLID_779_">
				<polygon id="XMLID_494_" style="fill:#F2F2F2;" points="412.333,349.064 412.332,362.956 404.312,367.586 404.312,353.694 				
					"/>
				<g id="XMLID_780_">
					<path id="XMLID_493_" style="fill:#8BA32A;" d="M408.542,350.589L408.542,350.589c-0.094-0.054-0.225-0.046-0.369,0.037
						c-0.288,0.166-0.52,0.568-0.519,0.898c0,0.17,0.063,0.287,0.162,0.339l0,0l0.288,0.165l0.724-1.277L408.542,350.589z"/>
					<path id="XMLID_382_" style="fill:#A1BD32;" d="M408.469,350.795c-0.287,0.166-0.52,0.568-0.519,0.899
						c0.001,0.33,0.235,0.463,0.522,0.297c0.288-0.166,0.52-0.568,0.519-0.898C408.99,350.762,408.757,350.629,408.469,350.795z"/>
				</g>
			</g>
			<g id="XMLID_773_">
				<polygon id="XMLID_492_" style="fill:#F2F2F2;" points="404.312,372.045 404.312,385.937 396.292,390.567 396.292,376.676 				
					"/>
				<g id="XMLID_774_">
					<path id="XMLID_490_" style="fill:#8BA32A;" d="M400.522,373.57L400.522,373.57c-0.095-0.054-0.225-0.046-0.369,0.037
						c-0.287,0.166-0.52,0.568-0.519,0.898c0.001,0.17,0.063,0.287,0.162,0.339l0,0l0.288,0.165l0.724-1.276L400.522,373.57z"/>
					<path id="XMLID_380_" style="fill:#A1BD32;" d="M400.448,373.776c-0.287,0.166-0.52,0.568-0.519,0.898
						c0.001,0.33,0.235,0.464,0.522,0.297c0.287-0.166,0.52-0.568,0.519-0.898C400.97,373.743,400.736,373.61,400.448,373.776z"/>
				</g>
			</g>
			<g id="XMLID_767_">
				<polygon id="XMLID_489_" style="fill:#F2F2F2;" points="373.567,379.142 373.566,393.034 365.547,397.664 365.547,383.772 				
					"/>
				<g id="XMLID_768_">
					<path id="XMLID_488_" style="fill:#8BA32A;" d="M369.777,380.666L369.777,380.666c-0.094-0.054-0.225-0.046-0.369,0.037
						c-0.288,0.166-0.52,0.568-0.519,0.898c0,0.17,0.063,0.287,0.162,0.339l0,0l0.288,0.165l0.724-1.276L369.777,380.666z"/>
					<path id="XMLID_379_" style="fill:#A1BD32;" d="M369.703,380.872c-0.288,0.166-0.52,0.568-0.519,0.898
						c0.001,0.33,0.235,0.463,0.522,0.298c0.287-0.166,0.52-0.568,0.519-0.898C370.225,380.84,369.991,380.706,369.703,380.872z"/>
				</g>
			</g>
			<g id="XMLID_761_">
				<polygon id="XMLID_485_" style="fill:#F2F2F2;" points="384.261,391.511 384.26,405.403 376.24,410.033 376.24,396.142 				"/>
				<g id="XMLID_762_">
					<path id="XMLID_484_" style="fill:#8BA32A;" d="M380.47,393.036L380.47,393.036c-0.095-0.054-0.225-0.046-0.369,0.037
						c-0.287,0.166-0.52,0.568-0.519,0.898c0.001,0.17,0.063,0.287,0.162,0.339l0,0l0.288,0.165l0.724-1.277L380.47,393.036z"/>
					<path id="XMLID_378_" style="fill:#A1BD32;" d="M380.397,393.242c-0.287,0.166-0.52,0.568-0.519,0.898
						c0.001,0.33,0.235,0.464,0.522,0.298c0.287-0.166,0.52-0.568,0.519-0.898C380.918,393.209,380.685,393.076,380.397,393.242z"/>
				</g>
			</g>
			<g id="XMLID_755_">
				<polygon id="XMLID_483_" style="fill:#90BD48;" points="384.261,369.901 384.261,376.076 378.914,379.163 378.914,372.989 				
					"/>
				<g id="XMLID_756_">
					<path id="XMLID_481_" style="fill:#8BA32A;" d="M381.808,370.655L381.808,370.655c-0.095-0.054-0.225-0.046-0.369,0.037
						c-0.287,0.166-0.52,0.568-0.519,0.898c0,0.17,0.063,0.287,0.162,0.339l0,0l0.288,0.165l0.724-1.277L381.808,370.655z"/>
					<path id="XMLID_376_" style="fill:#A1BD32;" d="M381.735,370.861c-0.288,0.166-0.52,0.568-0.519,0.898
						c0.001,0.33,0.235,0.463,0.522,0.298c0.287-0.166,0.52-0.568,0.519-0.898C382.256,370.828,382.022,370.695,381.735,370.861z"/>
				</g>
			</g>
			<g id="XMLID_749_">
				<polygon id="XMLID_480_" style="fill:#FBAB20;" points="390.945,370.674 390.945,376.848 385.598,379.935 385.598,373.761 				
					"/>
				<g id="XMLID_750_">
					<path id="XMLID_479_" style="fill:#8BA32A;" d="M388.491,371.427L388.491,371.427c-0.094-0.054-0.225-0.046-0.369,0.037
						c-0.287,0.166-0.52,0.568-0.519,0.898c0,0.17,0.063,0.287,0.162,0.339l0,0l0.288,0.165l0.724-1.277L388.491,371.427z"/>
					<path id="XMLID_375_" style="fill:#A1BD32;" d="M388.418,371.633c-0.288,0.166-0.52,0.568-0.519,0.898
						c0.001,0.33,0.235,0.464,0.522,0.298c0.287-0.166,0.52-0.568,0.519-0.898C388.939,371.6,388.706,371.467,388.418,371.633z"/>
				</g>
			</g>
			<g id="XMLID_743_">
				<polygon id="XMLID_476_" style="fill:#DE361F;" points="388.269,381.469 388.269,387.643 382.922,390.73 382.922,384.556 				
					"/>
				<g id="XMLID_744_">
					<path id="XMLID_475_" style="fill:#8BA32A;" d="M385.816,382.222L385.816,382.222c-0.095-0.054-0.225-0.046-0.369,0.037
						c-0.287,0.166-0.52,0.568-0.519,0.898c0,0.17,0.063,0.287,0.162,0.339l0,0l0.288,0.165l0.724-1.276L385.816,382.222z"/>
					<path id="XMLID_374_" style="fill:#A1BD32;" d="M385.742,382.428c-0.288,0.166-0.52,0.568-0.519,0.898
						c0.001,0.33,0.235,0.464,0.522,0.298c0.288-0.166,0.52-0.568,0.519-0.898C386.264,382.395,386.03,382.262,385.742,382.428z"/>
				</g>
			</g>
		</g>
	</g>
	<g id="_x33_7-box">
		<polygon id="XMLID_474_" style="fill:#5A3D1B;" points="154.602,399.73 154.604,399.73 116.484,377.722 65.221,407.319 
			103.34,429.327 		"/>
		<polygon id="XMLID_472_" style="fill:#C0874F;" points="116.485,338.259 115.17,339.019 115.17,378.481 116.484,377.722 
			154.602,399.73 154.603,360.267 		"/>
		<g id="XMLID_731_">
			<g id="XMLID_736_">
				<polygon id="XMLID_471_" style="fill:#C0874F;" points="96.768,354.197 98.082,353.438 98.082,359.509 96.768,360.268 
					95.453,361.026 95.453,354.955 				"/>
				<polygon id="XMLID_470_" style="fill:#E2BD96;" points="87.567,365.58 86.252,364.821 87.566,364.062 95.453,359.509 
					96.768,360.268 96.768,361.786 88.881,366.339 				"/>
			</g>
			<path id="XMLID_732_" style="fill:#8A5B29;" d="M65.221,407.319l51.264-29.597l0-39.463l-51.264,29.597L65.221,407.319z
				 M87.567,365.58v-6.071l9.201-5.312v6.071L87.567,365.58z"/>
		</g>
		<g id="XMLID_678_">
			<g id="XMLID_704_">
				<path id="XMLID_466_" style="fill:#D37511;" d="M147.128,360.525l0,40.093l-0.022,0.03c-2.127,2.857-5.341,4.706-8.88,5.11l0,0
					l-0.89-0.617l0.01-39.984l0.881,0.509l0,0c3.538-0.4,6.753-2.249,8.878-5.107L147.128,360.525z"/>
				<polygon id="XMLID_464_" style="fill:#EF881F;" points="138.226,405.758 111.521,390.339 111.521,350.233 138.226,365.665 				
					"/>
				<g id="XMLID_721_">
					<polygon id="XMLID_463_" style="fill:#E6E6E6;" points="132.885,367.212 132.885,376.463 115.971,366.698 115.971,357.447 
											"/>
					<g id="XMLID_722_">
						<polygon id="XMLID_462_" style="fill:#666666;" points="131.104,368.24 131.105,369.268 117.752,361.558 117.761,360.525 
													"/>
						<polygon id="XMLID_460_" style="fill:#666666;" points="130.214,369.781 130.214,370.809 118.642,364.128 118.642,363.1 
													"/>
						<polygon id="XMLID_459_" style="fill:#B3B3B3;" points="131.104,373.893 131.105,374.407 117.752,366.698 117.753,366.184 
													"/>
					</g>
				</g>
				<polygon id="XMLID_458_" style="fill:#8A4C01;" points="145.347,360.53 145.348,361.044 144.457,362.586 141.787,364.128 
					139.116,364.642 138.226,364.637 137.336,364.642 119.532,354.363 119.532,353.83 119.533,345.607 120.423,345.626 
					145.348,360.016 				"/>
				<g id="XMLID_708_">
					<path id="XMLID_456_" style="fill:#E6E6E6;" d="M144.91,361.297l-24.933-14.386l-6.199,3.598l24.902,14.385l0,0
						C141.151,364.568,143.392,363.274,144.91,361.297L144.91,361.297z"/>
					<g id="XMLID_709_">
						<polygon id="XMLID_455_" style="fill:#CCCCCC;" points="119.532,347.169 145.347,362.072 144.902,362.329 119.092,347.425 
													"/>
						<polygon id="XMLID_454_" style="fill:#CCCCCC;" points="118.642,347.686 144.457,362.586 144.012,362.843 118.207,347.939 
													"/>
						<polygon id="XMLID_452_" style="fill:#CCCCCC;" points="117.752,348.203 143.567,363.1 143.122,363.357 117.321,348.453 
													"/>
						<polygon id="XMLID_451_" style="fill:#CCCCCC;" points="116.862,348.719 142.677,363.614 142.232,363.871 116.435,348.967 
													"/>
						<polygon id="XMLID_450_" style="fill:#CCCCCC;" points="115.971,349.236 141.787,364.128 141.342,364.385 115.527,349.494 
													"/>
						<polygon id="XMLID_448_" style="fill:#CCCCCC;" points="115.082,349.752 140.896,364.642 140.451,364.899 114.636,350.01 
													"/>
						<polygon id="XMLID_447_" style="fill:#CCCCCC;" points="114.159,350.233 139.813,365.156 139.481,365.459 113.778,350.509 
													"/>
					</g>
				</g>
				<path id="XMLID_446_" style="fill:#FBAB20;" d="M112.411,349.719l25.815,14.918l0,0c2.91-0.074,5.585-1.613,7.112-4.092
					l0.009-0.015l-25.815-14.923l0.89-0.514l26.705,15.432l-0.024,0.033c-2.125,2.857-5.339,4.706-8.878,5.107l0,0l-26.705-15.432
					L112.411,349.719z"/>
			</g>
			<g id="XMLID_679_">
				<path id="XMLID_444_" style="fill:#922414;" d="M136.617,366.593l0,40.093l-0.022,0.03c-2.127,2.857-5.341,4.706-8.88,5.11l0,0
					l-0.89-0.618l0.01-39.984l0.881,0.509l0,0c3.538-0.4,6.752-2.249,8.877-5.107L136.617,366.593z"/>
				<polygon id="XMLID_443_" style="fill:#AB291D;" points="127.715,411.825 101.01,396.407 101.01,356.3 127.716,371.733 				"/>
				<g id="XMLID_694_">
					<polygon id="XMLID_442_" style="fill:#E6E6E6;" points="122.374,373.28 122.374,382.531 105.461,372.766 105.461,363.515 					
						"/>
					<g id="XMLID_696_">
						<polygon id="XMLID_440_" style="fill:#666666;" points="120.594,374.308 120.594,375.336 107.241,367.626 107.25,366.593 
													"/>
						<polygon id="XMLID_439_" style="fill:#666666;" points="119.704,375.849 119.704,376.877 108.132,370.196 108.132,369.168 
													"/>
						<polygon id="XMLID_438_" style="fill:#B3B3B3;" points="120.593,379.961 120.594,380.475 107.242,372.766 107.242,372.252 
													"/>
					</g>
				</g>
				<polygon id="XMLID_436_" style="fill:#6C1A0F;" points="134.837,366.599 134.837,367.112 133.947,368.654 131.276,370.196 
					128.606,370.71 127.715,370.705 126.825,370.71 109.022,360.431 109.022,359.898 109.022,351.675 109.912,351.694 
					134.837,366.084 				"/>
				<g id="XMLID_681_">
					<path id="XMLID_435_" style="fill:#E6E6E6;" d="M134.399,367.365l-24.933-14.386l-6.199,3.597l24.902,14.385l0,0
						C130.641,370.636,132.882,369.342,134.399,367.365L134.399,367.365z"/>
					<g id="XMLID_682_">
						<polygon id="XMLID_434_" style="fill:#CCCCCC;" points="109.021,353.237 134.837,368.14 134.392,368.397 108.582,353.493 
													"/>
						<polygon id="XMLID_432_" style="fill:#CCCCCC;" points="108.132,353.754 133.947,368.654 133.502,368.911 107.696,354.007 
													"/>
						<polygon id="XMLID_431_" style="fill:#CCCCCC;" points="107.241,354.271 133.056,369.168 132.611,369.425 106.81,354.521 
													"/>
						<polygon id="XMLID_430_" style="fill:#CCCCCC;" points="106.352,354.787 132.166,369.682 131.721,369.939 105.925,355.034 
													"/>
						<polygon id="XMLID_428_" style="fill:#CCCCCC;" points="105.461,355.304 131.276,370.196 130.831,370.453 105.016,355.562 
													"/>
						<polygon id="XMLID_427_" style="fill:#CCCCCC;" points="104.571,355.82 130.386,370.71 129.941,370.967 104.126,356.078 
													"/>
						<polygon id="XMLID_426_" style="fill:#CCCCCC;" points="103.648,356.3 129.302,371.224 128.971,371.527 103.268,356.577 
													"/>
					</g>
				</g>
				<path id="XMLID_424_" style="fill:#DE361F;" d="M101.901,355.786l25.815,14.918l0,0c2.91-0.074,5.585-1.613,7.112-4.091
					l0.009-0.015l-25.815-14.924l0.89-0.514l26.705,15.432l-0.024,0.033c-2.125,2.857-5.339,4.706-8.877,5.107l0,0L101.01,356.3
					L101.901,355.786z"/>
			</g>
		</g>
		<g id="XMLID_669_">
			<g id="XMLID_674_">
				<polygon id="XMLID_423_" style="fill:#5A3D1B;" points="133.572,375.446 134.886,374.687 134.886,380.758 133.572,381.517 
					132.257,382.275 132.257,376.204 				"/>
				<polygon id="XMLID_422_" style="fill:#E2BD96;" points="124.371,386.829 123.056,386.07 124.37,385.311 132.257,380.758 
					133.572,381.517 133.572,383.035 125.685,387.588 				"/>
			</g>
			<path id="XMLID_670_" style="fill:#8A5B29;" d="M102.025,428.568l1.315,0.759l51.262-29.597l0.001-39.463l-51.263,29.597
				l-1.314-0.759L102.025,428.568z M124.371,386.829v-6.071l9.201-5.312l0,6.071L124.371,386.829z"/>
		</g>
		<polygon id="XMLID_418_" style="fill:#C0874F;" points="103.34,389.864 65.221,367.856 65.221,407.319 103.34,429.327 		"/>
		<path id="XMLID_664_" style="fill:#E2BD96;" d="M65.221,367.856l36.805,21.249l0,0l1.314,0.759l49.948-28.838l0,0l1.315-0.759
			l-38.119-22.008L65.221,367.856z M67.849,367.856l48.636-28.079l35.489,20.49l-48.634,28.079L67.849,367.856z"/>
		<g id="XMLID_657_">
			<polygon id="XMLID_414_" style="fill:#E6E6E6;" points="91.51,387.588 91.509,398.212 74.422,388.347 74.422,377.722 			"/>
			<g id="XMLID_658_">
				<polygon id="XMLID_412_" style="fill:#666666;" points="88.881,387.588 88.881,389.105 77.051,382.276 77.051,380.758 				"/>
				<polygon id="XMLID_411_" style="fill:#666666;" points="87.566,389.864 87.566,391.382 78.365,386.07 78.366,384.552 				"/>
				<polygon id="XMLID_410_" style="fill:#B3B3B3;" points="90.195,395.176 90.195,395.936 75.737,387.588 75.737,386.829 				"/>
			</g>
		</g>
	</g>
	
		<text id="XMLID_372_" transform="matrix(1 0 0 1 111.1064 64.5368)" style="font-family:'Montserrat-ExtraLight'; font-size:16.6631px;">ISOMETRIC OFFICE ELEMENTS</text>
</g>
<g id="DESIGNED_BY_FREEPIK">
	<g id="XMLID_7_">
		<g id="XMLID_3195_">
			<path id="XMLID_3216_" style="fill:#666666;" d="M181.087,472.134c-0.246,0-0.435,0.085-0.567,0.255
				c-0.133,0.17-0.199,0.421-0.199,0.753v2.392c-0.305-0.331-0.617-0.579-0.937-0.739c-0.321-0.159-0.715-0.24-1.182-0.24
				c-0.807,0-1.458,0.283-1.953,0.848c-0.494,0.566-0.742,1.356-0.742,2.369c0,0.478,0.063,0.923,0.187,1.335
				c0.124,0.412,0.307,0.77,0.549,1.074c0.241,0.305,0.527,0.539,0.857,0.703c0.33,0.164,0.689,0.246,1.078,0.246
				c0.293,0,0.563-0.04,0.809-0.122c0.248-0.08,0.477-0.199,0.689-0.356c0.212-0.156,0.426-0.359,0.644-0.608v0.16
				c0,0.297,0.072,0.525,0.217,0.685c0.145,0.161,0.328,0.24,0.549,0.24c0.226,0,0.409-0.077,0.552-0.231
				c0.143-0.154,0.214-0.386,0.214-0.694v-7.146c0-0.305-0.066-0.534-0.199-0.691C181.521,472.212,181.332,472.134,181.087,472.134z
				 M180.021,478.974c-0.14,0.306-0.328,0.533-0.563,0.682c-0.236,0.149-0.496,0.223-0.781,0.223c-0.281,0-0.539-0.079-0.777-0.236
				c-0.237-0.155-0.424-0.387-0.561-0.696c-0.136-0.309-0.204-0.682-0.204-1.122c0-0.415,0.063-0.78,0.193-1.095
				c0.128-0.315,0.309-0.556,0.543-0.724c0.233-0.168,0.498-0.253,0.795-0.253c0.285,0,0.547,0.082,0.786,0.246
				c0.239,0.165,0.429,0.402,0.569,0.712c0.141,0.311,0.211,0.682,0.211,1.114C180.232,478.284,180.162,478.667,180.021,478.974z"/>
			<path id="XMLID_3213_" style="fill:#666666;" d="M188.452,478.054c0.233-0.122,0.35-0.385,0.35-0.793
				c0-0.438-0.114-0.87-0.339-1.294c-0.225-0.423-0.564-0.769-1.018-1.035c-0.453-0.268-0.996-0.4-1.628-0.4
				c-0.487,0-0.93,0.078-1.33,0.234c-0.4,0.157-0.737,0.381-1.009,0.674c-0.273,0.293-0.48,0.644-0.623,1.054
				c-0.143,0.409-0.214,0.853-0.214,1.332c0,1.017,0.289,1.822,0.867,2.415c0.577,0.592,1.387,0.89,2.427,0.89
				c0.455,0,0.858-0.059,1.207-0.178c0.352-0.12,0.641-0.268,0.873-0.448c0.231-0.18,0.404-0.368,0.519-0.564
				c0.115-0.197,0.172-0.367,0.172-0.514c0-0.166-0.052-0.294-0.155-0.386c-0.102-0.09-0.237-0.137-0.403-0.137
				c-0.154,0-0.273,0.035-0.356,0.107c-0.203,0.19-0.366,0.34-0.492,0.452c-0.126,0.111-0.265,0.215-0.416,0.312
				c-0.15,0.098-0.305,0.167-0.466,0.214c-0.16,0.045-0.337,0.067-0.531,0.067c-0.289,0-0.553-0.07-0.792-0.213
				c-0.239-0.142-0.432-0.354-0.576-0.635c-0.145-0.281-0.219-0.605-0.222-0.973h3.168
				C187.89,478.235,188.219,478.174,188.452,478.054z M184.297,477.315c0.055-0.546,0.212-0.959,0.472-1.238
				c0.259-0.28,0.59-0.418,0.994-0.418c0.424,0,0.764,0.137,1.024,0.412c0.259,0.275,0.409,0.69,0.448,1.244H184.297z"/>
			<path id="XMLID_3212_" style="fill:#666666;" d="M193.879,477.617c-0.319-0.17-0.729-0.316-1.231-0.439
				c-0.425-0.103-0.756-0.19-0.997-0.261c-0.242-0.07-0.434-0.16-0.577-0.27c-0.142-0.109-0.213-0.248-0.213-0.419
				c0-0.186,0.096-0.341,0.29-0.465c0.194-0.126,0.437-0.187,0.73-0.187c0.286,0,0.511,0.047,0.677,0.142
				c0.166,0.095,0.31,0.222,0.433,0.38c0.151,0.19,0.284,0.332,0.401,0.427c0.116,0.095,0.258,0.143,0.423,0.143
				c0.231,0,0.408-0.06,0.532-0.178c0.124-0.119,0.186-0.271,0.186-0.457c0-0.171-0.058-0.345-0.175-0.523
				c-0.116-0.178-0.286-0.34-0.51-0.486c-0.223-0.146-0.502-0.264-0.837-0.35c-0.333-0.088-0.71-0.131-1.13-0.131
				c-0.535,0-0.99,0.085-1.367,0.259c-0.378,0.172-0.665,0.403-0.859,0.691c-0.194,0.289-0.291,0.596-0.291,0.92
				c0,0.364,0.105,0.671,0.315,0.92c0.21,0.249,0.489,0.45,0.84,0.602c0.35,0.152,0.804,0.298,1.362,0.436
				c0.494,0.12,0.849,0.244,1.065,0.375c0.216,0.131,0.323,0.338,0.323,0.622c0,0.187-0.104,0.352-0.311,0.497
				c-0.208,0.144-0.474,0.216-0.798,0.216c-0.4,0-0.715-0.071-0.947-0.213c-0.231-0.143-0.431-0.358-0.597-0.647
				c-0.082-0.15-0.17-0.267-0.261-0.35c-0.091-0.082-0.221-0.124-0.391-0.124c-0.194,0-0.355,0.064-0.481,0.19
				c-0.128,0.126-0.19,0.278-0.19,0.456c0,0.27,0.099,0.537,0.297,0.805c0.198,0.266,0.505,0.489,0.92,0.667
				c0.415,0.178,0.914,0.267,1.495,0.267c0.61,0,1.127-0.082,1.552-0.246c0.425-0.164,0.747-0.406,0.964-0.724
				c0.218-0.319,0.326-0.702,0.326-1.149c0-0.297-0.082-0.56-0.246-0.791C194.438,477.988,194.197,477.787,193.879,477.617z"/>
			<path id="XMLID_3211_" style="fill:#666666;" d="M196.486,474.543c-0.237,0-0.43,0.081-0.579,0.243
				c-0.149,0.162-0.222,0.404-0.222,0.724v4.635c0,0.317,0.073,0.56,0.222,0.73c0.148,0.17,0.341,0.255,0.579,0.255
				c0.238,0,0.433-0.083,0.588-0.249c0.154-0.166,0.231-0.412,0.231-0.737v-4.682c0-0.289-0.077-0.514-0.231-0.677
				C196.919,474.624,196.724,474.543,196.486,474.543z"/>
			<path id="XMLID_3210_" style="fill:#666666;" d="M196.504,472.204c-0.217,0-0.409,0.073-0.573,0.223
				c-0.164,0.149-0.246,0.337-0.246,0.567c0,0.254,0.08,0.45,0.24,0.588c0.16,0.139,0.353,0.208,0.579,0.208
				c0.217,0,0.405-0.071,0.563-0.211c0.158-0.14,0.238-0.335,0.238-0.585c0-0.257-0.081-0.453-0.243-0.588
				C196.9,472.272,196.714,472.204,196.504,472.204z"/>
			<path id="XMLID_3207_" style="fill:#666666;" d="M203.626,474.543c-0.217,0-0.396,0.078-0.535,0.231
				c-0.139,0.155-0.208,0.372-0.208,0.653v0.22c-0.289-0.376-0.602-0.652-0.937-0.829c-0.337-0.175-0.735-0.264-1.194-0.264
				c-0.384,0-0.736,0.068-1.056,0.204c-0.32,0.137-0.604,0.34-0.849,0.609c-0.245,0.268-0.433,0.599-0.566,0.992
				c-0.133,0.391-0.199,0.831-0.199,1.318c0,0.653,0.109,1.228,0.327,1.727c0.217,0.499,0.529,0.886,0.934,1.163
				c0.406,0.277,0.88,0.416,1.422,0.416c0.45,0,0.84-0.091,1.165-0.273c0.327-0.182,0.615-0.447,0.864-0.796
				c-0.008,0.531-0.02,0.915-0.035,1.155c-0.016,0.24-0.07,0.464-0.163,0.673c-0.093,0.21-0.255,0.374-0.486,0.49
				c-0.231,0.117-0.557,0.175-0.977,0.175c-0.205,0-0.388-0.02-0.546-0.056c-0.159-0.038-0.294-0.095-0.406-0.172
				c-0.112-0.078-0.216-0.17-0.309-0.279c-0.093-0.109-0.183-0.217-0.27-0.324c-0.178-0.209-0.386-0.314-0.624-0.314
				c-0.189,0-0.352,0.062-0.486,0.187c-0.135,0.124-0.202,0.285-0.202,0.483c0,0.262,0.119,0.516,0.356,0.763
				c0.238,0.247,0.576,0.449,1.014,0.605c0.439,0.156,0.938,0.234,1.496,0.234c0.609,0,1.119-0.061,1.528-0.184
				c0.409-0.122,0.741-0.311,0.994-0.563c0.253-0.254,0.438-0.574,0.552-0.961c0.115-0.389,0.173-0.851,0.173-1.389v-4.706
				c0-0.384-0.051-0.678-0.155-0.882C204.146,474.645,203.938,474.543,203.626,474.543z M202.599,478.908
				c-0.151,0.291-0.345,0.508-0.586,0.653c-0.239,0.144-0.493,0.217-0.762,0.217c-0.455,0-0.826-0.168-1.113-0.505
				c-0.287-0.336-0.43-0.834-0.43-1.49c0-0.649,0.139-1.15,0.418-1.502s0.649-0.528,1.113-0.528c0.475,0,0.857,0.184,1.148,0.553
				c0.291,0.367,0.436,0.882,0.436,1.543C202.825,478.265,202.749,478.617,202.599,478.908z"/>
			<path id="XMLID_3206_" style="fill:#666666;" d="M210.978,475.611c-0.165-0.339-0.417-0.602-0.753-0.788
				c-0.337-0.186-0.718-0.28-1.146-0.28c-0.439,0-0.827,0.088-1.166,0.264c-0.339,0.176-0.65,0.452-0.935,0.828v-0.196
				c0-0.193-0.034-0.358-0.104-0.493c-0.07-0.134-0.162-0.234-0.276-0.302c-0.115-0.068-0.244-0.101-0.387-0.101
				c-0.233,0-0.417,0.076-0.552,0.228c-0.134,0.153-0.201,0.383-0.201,0.692v4.682c0,0.317,0.076,0.56,0.226,0.73
				c0.15,0.17,0.342,0.255,0.576,0.255c0.241,0,0.438-0.082,0.59-0.246c0.152-0.164,0.228-0.411,0.228-0.74v-2.03
				c0-0.661,0.04-1.111,0.119-1.353c0.11-0.3,0.284-0.537,0.522-0.71c0.237-0.173,0.5-0.258,0.788-0.258
				c0.444,0,0.74,0.142,0.888,0.425c0.148,0.283,0.223,0.691,0.223,1.225v2.7c0,0.317,0.074,0.56,0.226,0.73
				c0.15,0.17,0.345,0.255,0.587,0.255c0.238,0,0.431-0.083,0.579-0.249c0.149-0.166,0.223-0.412,0.223-0.737v-3.015
				c0-0.356-0.017-0.648-0.048-0.878C211.155,476.023,211.085,475.809,210.978,475.611z"/>
			<path id="XMLID_3203_" style="fill:#666666;" d="M217.821,478.054c0.234-0.122,0.35-0.385,0.35-0.793
				c0-0.438-0.114-0.87-0.338-1.294c-0.226-0.423-0.565-0.769-1.019-1.035c-0.453-0.268-0.995-0.4-1.628-0.4
				c-0.487,0-0.93,0.078-1.33,0.234c-0.4,0.157-0.736,0.381-1.009,0.674c-0.273,0.293-0.481,0.644-0.624,1.054
				c-0.142,0.409-0.214,0.853-0.214,1.332c0,1.017,0.289,1.822,0.867,2.415c0.578,0.592,1.387,0.89,2.427,0.89
				c0.455,0,0.858-0.059,1.208-0.178c0.35-0.12,0.64-0.268,0.871-0.448c0.232-0.18,0.405-0.368,0.52-0.564
				c0.115-0.197,0.172-0.367,0.172-0.514c0-0.166-0.051-0.294-0.154-0.386c-0.103-0.09-0.238-0.137-0.404-0.137
				c-0.154,0-0.273,0.035-0.356,0.107c-0.201,0.19-0.366,0.34-0.492,0.452c-0.128,0.111-0.266,0.215-0.415,0.312
				c-0.151,0.098-0.306,0.167-0.466,0.214c-0.161,0.045-0.338,0.067-0.532,0.067c-0.289,0-0.553-0.07-0.792-0.213
				c-0.239-0.142-0.431-0.354-0.575-0.635c-0.145-0.281-0.218-0.605-0.223-0.973h3.169
				C217.26,478.235,217.588,478.174,217.821,478.054z M213.667,477.315c0.056-0.546,0.212-0.959,0.471-1.238
				c0.259-0.28,0.591-0.418,0.995-0.418c0.423,0,0.765,0.137,1.024,0.412c0.259,0.275,0.409,0.69,0.448,1.244H213.667z"/>
			<path id="XMLID_3200_" style="fill:#666666;" d="M224.207,472.134c-0.245,0-0.434,0.085-0.567,0.255
				c-0.132,0.17-0.199,0.421-0.199,0.753v2.392c-0.304-0.331-0.616-0.579-0.937-0.739c-0.32-0.159-0.714-0.24-1.181-0.24
				c-0.807,0-1.458,0.283-1.953,0.848c-0.495,0.566-0.741,1.356-0.741,2.369c0,0.478,0.062,0.923,0.187,1.335
				c0.124,0.412,0.308,0.77,0.549,1.074c0.241,0.305,0.527,0.539,0.857,0.703c0.33,0.164,0.689,0.246,1.077,0.246
				c0.293,0,0.563-0.04,0.81-0.122c0.247-0.08,0.476-0.199,0.688-0.356c0.211-0.156,0.426-0.359,0.643-0.608v0.16
				c0,0.297,0.073,0.525,0.217,0.685c0.145,0.161,0.328,0.24,0.549,0.24c0.226,0,0.41-0.077,0.552-0.231
				c0.143-0.154,0.214-0.386,0.214-0.694v-7.146c0-0.305-0.066-0.534-0.199-0.691C224.64,472.212,224.452,472.134,224.207,472.134z
				 M223.141,478.974c-0.14,0.306-0.328,0.533-0.564,0.682c-0.236,0.149-0.496,0.223-0.781,0.223c-0.281,0-0.539-0.079-0.776-0.236
				c-0.238-0.155-0.425-0.387-0.561-0.696c-0.137-0.309-0.205-0.682-0.205-1.122c0-0.415,0.064-0.78,0.193-1.095
				c0.129-0.315,0.31-0.556,0.543-0.724c0.233-0.168,0.499-0.253,0.795-0.253c0.285,0,0.547,0.082,0.787,0.246
				c0.239,0.165,0.43,0.402,0.57,0.712c0.14,0.311,0.211,0.682,0.211,1.114C223.352,478.284,223.281,478.667,223.141,478.974z"/>
			<path id="XMLID_3197_" style="fill:#666666;" d="M233.586,474.937c-0.406-0.254-0.878-0.382-1.416-0.382
				c-0.467,0-0.859,0.084-1.175,0.252c-0.317,0.168-0.627,0.411-0.932,0.727v-2.475c0-0.297-0.068-0.524-0.202-0.685
				c-0.134-0.16-0.326-0.24-0.576-0.24c-0.237,0-0.423,0.084-0.555,0.252c-0.132,0.168-0.198,0.416-0.198,0.745v7.075
				c0,0.305,0.068,0.535,0.205,0.692c0.136,0.156,0.319,0.234,0.549,0.234c0.226,0,0.412-0.077,0.558-0.234
				c0.146-0.157,0.22-0.388,0.22-0.692v-0.16c0.178,0.205,0.322,0.361,0.43,0.463c0.109,0.103,0.241,0.203,0.395,0.3
				c0.154,0.098,0.341,0.175,0.561,0.234c0.22,0.06,0.454,0.089,0.704,0.089c0.407,0,0.781-0.082,1.118-0.246
				c0.338-0.164,0.626-0.397,0.864-0.698c0.237-0.3,0.418-0.656,0.543-1.065c0.124-0.41,0.187-0.859,0.187-1.35
				c0-0.665-0.112-1.241-0.336-1.725C234.305,475.563,233.991,475.193,233.586,474.937z M232.796,479.348
				c-0.295,0.354-0.646,0.531-1.053,0.531c-0.479,0-0.866-0.174-1.161-0.521c-0.295-0.346-0.442-0.841-0.442-1.487
				c0-0.439,0.069-0.818,0.208-1.136c0.138-0.319,0.328-0.562,0.57-0.73c0.24-0.168,0.516-0.253,0.825-0.253
				c0.3,0,0.564,0.085,0.79,0.253c0.225,0.168,0.399,0.406,0.522,0.715c0.123,0.308,0.184,0.677,0.184,1.104
				C233.238,478.486,233.09,478.993,232.796,479.348z"/>
			<path id="XMLID_3196_" style="fill:#666666;" d="M240.529,474.641c-0.112-0.066-0.229-0.098-0.353-0.098
				c-0.171,0-0.303,0.03-0.395,0.09c-0.093,0.058-0.181,0.173-0.264,0.344c-0.083,0.17-0.176,0.406-0.279,0.706l-1.3,3.71
				l-1.371-3.988c-0.091-0.277-0.195-0.489-0.314-0.638c-0.119-0.148-0.295-0.223-0.529-0.223c-0.135,0-0.264,0.035-0.389,0.107
				c-0.124,0.071-0.222,0.166-0.294,0.285c-0.071,0.118-0.107,0.247-0.107,0.385c0,0.13,0.062,0.341,0.184,0.628l1.994,5.022
				l-0.148,0.362c-0.111,0.265-0.209,0.466-0.294,0.601c-0.085,0.138-0.181,0.234-0.288,0.289c-0.107,0.056-0.254,0.084-0.44,0.084
				c-0.074,0-0.163-0.012-0.266-0.035c-0.083-0.024-0.168-0.037-0.256-0.037c-0.221,0-0.388,0.051-0.5,0.152
				c-0.114,0.101-0.17,0.245-0.17,0.43c0,0.273,0.118,0.461,0.356,0.564c0.237,0.103,0.593,0.154,1.068,0.154
				c0.487,0,0.873-0.074,1.161-0.223c0.287-0.148,0.517-0.361,0.691-0.638c0.174-0.277,0.353-0.658,0.535-1.145l2.113-5.532
				c0.051-0.142,0.095-0.283,0.13-0.421c0.037-0.139,0.061-0.246,0.078-0.321c0-0.123-0.032-0.239-0.093-0.35
				C240.729,474.794,240.642,474.706,240.529,474.641z"/>
		</g>
		<g id="XMLID_8_">
			<g id="XMLID_3174_">
				<path id="XMLID_3194_" style="fill:#666666;" d="M262.93,472.129c-0.533,0-0.954,0.069-1.26,0.204
					c-0.307,0.137-0.527,0.354-0.654,0.652c-0.129,0.301-0.191,0.702-0.191,1.211v0.487h-0.387c-0.543,0-0.815,0.192-0.815,0.582
					c0,0.174,0.066,0.316,0.197,0.424c0.132,0.111,0.315,0.163,0.558,0.163h0.447v4.294c0,0.319,0.074,0.563,0.227,0.73
					c0.154,0.17,0.344,0.254,0.574,0.254c0.243,0,0.438-0.084,0.589-0.254c0.156-0.167,0.231-0.411,0.231-0.73v-4.294h0.395
					c0.29,0,0.517-0.035,0.68-0.107c0.166-0.071,0.245-0.24,0.245-0.502c0-0.374-0.306-0.56-0.926-0.56h-0.395v-0.386
					c0-0.322,0.043-0.568,0.122-0.74c0.087-0.172,0.273-0.259,0.566-0.259c0.107,0,0.241,0.014,0.389,0.034
					c0.156,0.026,0.267,0.038,0.329,0.038c0.134,0,0.252-0.054,0.348-0.16c0.101-0.107,0.15-0.236,0.15-0.384
					C264.35,472.359,263.879,472.129,262.93,472.129z"/>
				<path id="XMLID_3193_" style="fill:#666666;" d="M268.089,474.795c-0.32-0.171-0.648-0.255-0.99-0.255
					c-0.342,0-0.611,0.084-0.818,0.255c-0.203,0.171-0.4,0.421-0.592,0.755c-0.014-0.334-0.08-0.584-0.198-0.755
					c-0.119-0.171-0.312-0.255-0.583-0.255c-0.525,0-0.788,0.364-0.788,1.093v4.513c0,0.323,0.077,0.569,0.225,0.733
					c0.15,0.169,0.34,0.25,0.579,0.25c0.237,0,0.432-0.081,0.586-0.247c0.151-0.163,0.234-0.41,0.234-0.737v-1.355
					c0-0.486,0.014-0.899,0.045-1.239c0.034-0.336,0.09-0.63,0.17-0.878c0.084-0.243,0.201-0.425,0.353-0.553
					c0.149-0.122,0.345-0.186,0.582-0.186c0.171,0,0.373,0.037,0.602,0.108c0.226,0.073,0.37,0.112,0.433,0.112
					c0.157,0,0.304-0.064,0.441-0.195c0.135-0.126,0.204-0.292,0.204-0.488C268.571,475.193,268.411,474.966,268.089,474.795z"/>
				<path id="XMLID_3190_" style="fill:#666666;" d="M274.176,478.052c0.233-0.122,0.351-0.386,0.351-0.791
					c0-0.441-0.113-0.87-0.339-1.296c-0.222-0.423-0.566-0.77-1.018-1.034c-0.453-0.27-0.997-0.403-1.629-0.403
					c-0.488,0-0.931,0.078-1.33,0.233c-0.402,0.156-0.735,0.38-1.007,0.674c-0.276,0.295-0.484,0.643-0.624,1.055
					c-0.144,0.41-0.217,0.855-0.217,1.333c0,1.017,0.292,1.823,0.87,2.418c0.577,0.593,1.385,0.888,2.429,0.888
					c0.453,0,0.857-0.06,1.207-0.179c0.349-0.117,0.639-0.268,0.874-0.446c0.233-0.182,0.405-0.368,0.522-0.566
					c0.112-0.195,0.167-0.365,0.167-0.512c0-0.167-0.048-0.294-0.152-0.386c-0.105-0.092-0.238-0.139-0.406-0.139
					c-0.152,0-0.271,0.038-0.355,0.109c-0.202,0.189-0.367,0.34-0.494,0.449c-0.128,0.113-0.264,0.217-0.415,0.312
					c-0.15,0.097-0.307,0.17-0.466,0.213c-0.16,0.048-0.336,0.069-0.531,0.069c-0.29,0-0.552-0.07-0.793-0.212
					c-0.24-0.145-0.431-0.356-0.578-0.635c-0.144-0.281-0.216-0.607-0.221-0.974h3.171
					C273.615,478.233,273.943,478.173,274.176,478.052z M270.021,477.312c0.054-0.546,0.213-0.957,0.472-1.236
					c0.259-0.28,0.591-0.417,0.995-0.417c0.426,0,0.764,0.136,1.025,0.413c0.26,0.273,0.407,0.688,0.446,1.241H270.021z"/>
				<path id="XMLID_3187_" style="fill:#666666;" d="M280.916,478.052c0.231-0.122,0.351-0.386,0.351-0.791
					c0-0.441-0.116-0.87-0.34-1.296c-0.222-0.423-0.563-0.77-1.013-1.034c-0.46-0.27-1.003-0.403-1.633-0.403
					c-0.486,0-0.932,0.078-1.33,0.233c-0.401,0.156-0.736,0.38-1.009,0.674c-0.273,0.295-0.481,0.643-0.622,1.055
					c-0.145,0.41-0.217,0.855-0.217,1.333c0,1.017,0.29,1.823,0.868,2.418c0.58,0.593,1.387,0.888,2.429,0.888
					c0.453,0,0.86-0.06,1.208-0.179c0.347-0.117,0.641-0.268,0.872-0.446c0.234-0.182,0.408-0.368,0.519-0.566
					c0.117-0.195,0.171-0.365,0.171-0.512c0-0.167-0.047-0.294-0.15-0.386c-0.104-0.092-0.238-0.139-0.406-0.139
					c-0.151,0-0.27,0.038-0.355,0.109c-0.203,0.189-0.368,0.34-0.492,0.449c-0.128,0.113-0.264,0.217-0.415,0.312
					c-0.152,0.097-0.307,0.17-0.469,0.213c-0.157,0.048-0.336,0.069-0.528,0.069c-0.291,0-0.555-0.07-0.794-0.212
					c-0.239-0.145-0.431-0.356-0.575-0.635c-0.143-0.281-0.218-0.607-0.222-0.974h3.17
					C280.354,478.233,280.682,478.173,280.916,478.052z M276.762,477.312c0.053-0.546,0.211-0.957,0.469-1.236
					c0.261-0.28,0.592-0.417,0.995-0.417c0.425,0,0.763,0.136,1.027,0.413c0.257,0.273,0.407,0.688,0.447,1.241H276.762z"/>
				<path id="XMLID_3184_" style="fill:#666666;" d="M286.926,474.937c-0.42-0.256-0.882-0.386-1.379-0.386
					c-0.415,0-0.79,0.089-1.114,0.267c-0.331,0.176-0.649,0.452-0.952,0.828v-0.195c0-0.296-0.071-0.519-0.218-0.677
					c-0.143-0.156-0.329-0.234-0.56-0.234c-0.233,0-0.419,0.078-0.553,0.228c-0.134,0.155-0.2,0.382-0.2,0.692v6.995
					c0,0.355,0.051,0.62,0.146,0.807c0.102,0.183,0.301,0.275,0.607,0.275c0.517,0,0.777-0.359,0.777-1.068v-2.433
					c0.287,0.358,0.586,0.634,0.901,0.816c0.314,0.187,0.704,0.279,1.165,0.279c0.385,0,0.741-0.076,1.079-0.227
					c0.334-0.153,0.622-0.372,0.868-0.654c0.245-0.283,0.441-0.632,0.58-1.05c0.14-0.419,0.21-0.878,0.21-1.376
					c0-0.677-0.122-1.261-0.366-1.758C287.675,475.572,287.346,475.196,286.926,474.937z M286.451,478.94
					c-0.137,0.313-0.32,0.546-0.552,0.704c-0.229,0.154-0.48,0.232-0.748,0.232c-0.454,0-0.828-0.179-1.133-0.536
					c-0.306-0.358-0.46-0.862-0.46-1.504c0-0.686,0.154-1.204,0.462-1.558c0.306-0.35,0.684-0.527,1.13-0.527
					c0.281,0,0.541,0.084,0.77,0.248c0.229,0.163,0.411,0.397,0.541,0.705c0.13,0.306,0.197,0.674,0.197,1.101
					C286.658,478.248,286.589,478.626,286.451,478.94z"/>
				<path id="XMLID_3183_" style="fill:#666666;" d="M289.9,474.54c-0.238,0-0.428,0.079-0.58,0.245
					c-0.146,0.162-0.222,0.403-0.222,0.721v4.641c0,0.313,0.076,0.555,0.222,0.729c0.152,0.17,0.342,0.254,0.58,0.254
					c0.238,0,0.432-0.082,0.588-0.25c0.154-0.165,0.231-0.41,0.231-0.732v-4.688c0-0.287-0.078-0.512-0.231-0.675
					C290.332,474.619,290.138,474.54,289.9,474.54z"/>
				<path id="XMLID_3182_" style="fill:#666666;" d="M289.917,472.199c-0.217,0-0.408,0.076-0.571,0.223
					c-0.166,0.149-0.248,0.339-0.248,0.568c0,0.253,0.081,0.447,0.242,0.586c0.159,0.138,0.35,0.209,0.577,0.209
					c0.22,0,0.408-0.071,0.566-0.209c0.157-0.14,0.236-0.335,0.236-0.585c0-0.257-0.082-0.454-0.244-0.591
					C290.314,472.267,290.13,472.199,289.917,472.199z"/>
				<path id="XMLID_3181_" style="fill:#666666;" d="M297.258,479.569l-1.662-2.614l0.86-0.789c0.438-0.395,0.659-0.714,0.659-0.951
					c0-0.192-0.068-0.355-0.2-0.483c-0.139-0.128-0.306-0.193-0.51-0.193c-0.168,0-0.312,0.043-0.431,0.13
					c-0.121,0.086-0.29,0.251-0.517,0.486l-1.822,1.914v-3.933c0-0.329-0.074-0.582-0.221-0.751
					c-0.148-0.172-0.344-0.258-0.593-0.258c-0.255,0-0.457,0.093-0.596,0.283c-0.135,0.189-0.207,0.462-0.207,0.821v6.913
					c0,0.323,0.073,0.569,0.215,0.733c0.141,0.169,0.339,0.25,0.588,0.25c0.213,0,0.406-0.084,0.566-0.254
					c0.165-0.167,0.248-0.406,0.248-0.718v-1.291l0.88-0.83l1.427,2.353c0.181,0.278,0.33,0.471,0.436,0.58
					c0.106,0.109,0.26,0.16,0.458,0.16c0.226,0,0.413-0.073,0.553-0.221c0.142-0.151,0.214-0.352,0.214-0.61
					c0-0.089-0.029-0.19-0.082-0.289C297.47,479.909,297.379,479.765,297.258,479.569z"/>
				<path id="XMLID_3180_" style="fill:#666666;" d="M299.45,479.343c-0.25,0-0.458,0.087-0.63,0.261
					c-0.17,0.173-0.256,0.381-0.256,0.622c0,0.287,0.09,0.51,0.268,0.665c0.179,0.159,0.389,0.238,0.633,0.238
					c0.237,0,0.444-0.079,0.624-0.241c0.174-0.157,0.264-0.38,0.264-0.662c0-0.243-0.089-0.454-0.264-0.626
					C299.909,479.43,299.698,479.343,299.45,479.343z"/>
				<path id="XMLID_3179_" style="fill:#666666;" d="M306.835,478.417c-0.167,0-0.308,0.054-0.422,0.156
					c-0.113,0.104-0.219,0.245-0.318,0.427c-0.178,0.309-0.381,0.538-0.616,0.689c-0.231,0.15-0.509,0.225-0.835,0.225
					c-0.24,0-0.463-0.045-0.665-0.141c-0.201-0.093-0.372-0.229-0.516-0.409c-0.144-0.18-0.252-0.398-0.325-0.652
					c-0.075-0.256-0.114-0.537-0.114-0.842c0-0.646,0.147-1.161,0.439-1.534c0.293-0.375,0.682-0.561,1.158-0.561
					c0.333,0,0.607,0.075,0.821,0.227c0.219,0.148,0.424,0.375,0.622,0.674c0.109,0.158,0.209,0.269,0.299,0.339
					c0.09,0.068,0.201,0.104,0.338,0.104c0.202,0,0.377-0.068,0.524-0.203c0.143-0.135,0.214-0.3,0.214-0.492
					c0-0.192-0.063-0.397-0.192-0.617c-0.128-0.218-0.314-0.424-0.556-0.62c-0.245-0.192-0.54-0.352-0.89-0.474
					c-0.353-0.123-0.737-0.184-1.157-0.184c-0.674,0-1.26,0.138-1.747,0.419c-0.486,0.279-0.859,0.674-1.113,1.183
					c-0.259,0.511-0.387,1.098-0.387,1.765c0,0.981,0.281,1.764,0.841,2.349c0.562,0.582,1.344,0.876,2.348,0.876
					c0.469,0,0.893-0.065,1.269-0.192c0.377-0.126,0.688-0.295,0.934-0.502c0.248-0.207,0.434-0.425,0.554-0.656
					c0.121-0.229,0.182-0.446,0.182-0.646c0-0.169-0.066-0.331-0.198-0.481C307.198,478.493,307.033,478.417,306.835,478.417z"/>
				<path id="XMLID_3176_" style="fill:#666666;" d="M313.647,475.453c-0.288-0.29-0.629-0.518-1.027-0.674
					c-0.4-0.161-0.846-0.239-1.336-0.239c-0.483,0-0.924,0.078-1.326,0.234c-0.399,0.158-0.737,0.38-1.019,0.669
					c-0.281,0.288-0.498,0.636-0.649,1.045c-0.146,0.408-0.224,0.858-0.224,1.349c0,0.485,0.076,0.929,0.219,1.332
					c0.152,0.402,0.369,0.75,0.657,1.048c0.285,0.292,0.627,0.521,1.016,0.676c0.392,0.159,0.835,0.239,1.326,0.239
					c0.492,0,0.937-0.08,1.336-0.234c0.394-0.158,0.735-0.382,1.02-0.675c0.286-0.291,0.502-0.641,0.656-1.05
					c0.146-0.408,0.222-0.855,0.222-1.336c0-0.489-0.075-0.932-0.221-1.339C314.148,476.096,313.933,475.749,313.647,475.453z
					 M312.455,479.368c-0.29,0.372-0.682,0.557-1.171,0.557c-0.324,0-0.605-0.086-0.846-0.253c-0.24-0.168-0.423-0.409-0.553-0.729
					c-0.129-0.317-0.194-0.684-0.194-1.108c0-0.428,0.066-0.803,0.197-1.125c0.131-0.321,0.314-0.563,0.556-0.727
					c0.242-0.164,0.522-0.246,0.84-0.246c0.489,0,0.881,0.182,1.171,0.555c0.289,0.367,0.436,0.881,0.436,1.543
					C312.891,478.487,312.744,478.999,312.455,479.368z"/>
				<path id="XMLID_3175_" style="fill:#666666;" d="M323.569,474.813c-0.32-0.173-0.705-0.262-1.146-0.262
					c-0.381,0-0.726,0.081-1.039,0.241c-0.313,0.161-0.607,0.408-0.881,0.738c-0.191-0.326-0.431-0.572-0.725-0.735
					c-0.292-0.162-0.641-0.243-1.048-0.243c-0.394,0-0.747,0.079-1.07,0.241c-0.319,0.156-0.619,0.403-0.903,0.738v-0.153
					c0-0.261-0.074-0.466-0.221-0.616c-0.15-0.145-0.334-0.221-0.557-0.221c-0.227,0-0.413,0.078-0.555,0.239
					c-0.14,0.157-0.21,0.389-0.21,0.694v4.636c0,0.336,0.078,0.591,0.235,0.765c0.156,0.171,0.357,0.257,0.604,0.257
					c0.248,0,0.447-0.087,0.603-0.257c0.149-0.173,0.226-0.428,0.226-0.765v-2.188c0-0.684,0.086-1.206,0.253-1.566
					c0.168-0.369,0.516-0.551,1.048-0.551c0.263,0,0.459,0.072,0.581,0.22c0.122,0.142,0.198,0.331,0.226,0.552
					c0.027,0.226,0.04,0.544,0.04,0.953v2.581c0,0.341,0.078,0.594,0.232,0.767c0.148,0.17,0.349,0.255,0.594,0.255
					c0.254,0,0.455-0.085,0.611-0.255c0.156-0.173,0.231-0.426,0.231-0.767v-2.154c0-0.694,0.062-1.178,0.178-1.452
					c0.109-0.209,0.259-0.383,0.45-0.508c0.192-0.125,0.395-0.192,0.609-0.192c0.264,0,0.463,0.072,0.596,0.215
					c0.128,0.142,0.209,0.319,0.239,0.529c0.029,0.209,0.043,0.486,0.043,0.836v2.725c0,0.336,0.079,0.591,0.235,0.765
					c0.157,0.171,0.356,0.257,0.603,0.257c0.253,0,0.458-0.085,0.612-0.255c0.154-0.173,0.229-0.426,0.229-0.767v-3.163
					c0-0.629-0.068-1.091-0.206-1.385C324.128,475.237,323.888,474.987,323.569,474.813z"/>
			</g>
			<g id="XMLID_10_">
				<path id="XMLID_3173_" style="fill:#666666;" d="M245.273,477.444c-0.001-0.004-0.001-0.006-0.001-0.011
					C245.272,477.438,245.272,477.44,245.273,477.444z"/>
				<path id="XMLID_3172_" style="fill:#666666;" d="M245.355,477.961c0.001,0,0.001,0,0.001,0
					c-0.031-0.147-0.055-0.294-0.073-0.438C245.301,477.669,245.326,477.816,245.355,477.961z"/>
				<path id="XMLID_3171_" style="fill:#666666;" d="M245.891,479.466c-0.004-0.006-0.007-0.013-0.01-0.021
					C245.885,479.452,245.888,479.46,245.891,479.466z"/>
				<path id="XMLID_3170_" style="fill:#666666;" d="M245.84,479.366c-0.014-0.027-0.027-0.056-0.041-0.084
					C245.813,479.311,245.826,479.338,245.84,479.366z"/>
				<path id="XMLID_3169_" style="fill:#666666;" d="M245.506,478.541c0.079,0.25,0.175,0.492,0.286,0.724
					c-0.113-0.236-0.206-0.479-0.284-0.724H245.506z"/>
				<path id="XMLID_2333_" style="fill:#666666;" d="M250.736,470.681l-0.076-0.259c0.299-0.063,0.524-0.329,0.524-0.646
					c0-0.364-0.297-0.659-0.66-0.659c-0.365,0-0.66,0.295-0.66,0.659c0,0.317,0.225,0.583,0.522,0.646l0.084,0.289
					c-1.021,0.14-1.834,0.539-1.834,0.539l0.144,0.441c0.618-0.206,1.153-0.331,1.64-0.383c0.476-0.051,0.834-0.073,1.126-0.073
					c0.314,0,0.544,0.025,0.809,0.069l0.075-0.476C252.429,470.828,251.698,470.603,250.736,470.681z"/>
				<path id="XMLID_2332_" style="fill:#666666;" d="M245.453,473.188c-0.017,0.024-0.497,0.465-0.876,1.28
					c-0.016-0.026-0.035-0.051-0.056-0.074c-0.113-0.124-0.272-0.187-0.474-0.184c-0.002,0-0.006,0-0.01,0
					c-0.125,0-0.21-0.042-0.266-0.092c0.055-0.071,0.089-0.16,0.089-0.258c0-0.231-0.187-0.419-0.419-0.419
					c-0.23,0-0.417,0.188-0.417,0.419c0,0.231,0.187,0.417,0.417,0.417c0.037,0,0.071-0.005,0.105-0.012
					c0.102,0.113,0.265,0.214,0.504,0.209c0.123-0.001,0.214,0.03,0.273,0.097c0.07,0.076,0.093,0.185,0.1,0.267
					c-0.001,0.002-0.001,0.004-0.002,0.004c-0.272,0.743-0.195,1.668-0.195,1.668l0.661,0.026c0.013-0.336,0.062-0.926,0.232-1.393
					c0.328-0.906,0.741-1.472,0.757-1.496l0.004-0.005c0.024-0.031,0.047-0.06,0.071-0.089l-0.196-0.142L245.453,473.188z"/>
				<path id="XMLID_2330_" style="fill:#666666;" d="M257.294,471.787c-0.23,0-0.418,0.187-0.418,0.417
					c0,0.037,0.006,0.071,0.015,0.104c-0.115,0.104-0.214,0.267-0.211,0.507c0.002,0.123-0.03,0.212-0.096,0.273
					c-0.053,0.047-0.12,0.072-0.185,0.088c-0.492-0.689-1.097-1.109-1.097-1.109l-0.474,0.508c0.358,0.326,0.724,0.734,1.08,1.244
					c0.246,0.352,0.499,0.806,0.71,1.259l0.64-0.304c0,0-0.292-0.722-0.704-1.369c0.071-0.025,0.143-0.064,0.207-0.12
					c0.125-0.113,0.187-0.273,0.183-0.474c-0.001-0.13,0.042-0.218,0.093-0.276c0.071,0.054,0.16,0.089,0.257,0.089
					c0.232,0,0.419-0.187,0.419-0.419C257.712,471.974,257.525,471.787,257.294,471.787z"/>
				<path id="XMLID_15_" style="fill:#666666;" d="M255.633,477.537c-0.88,0.429-2.33,0.996-4.237,1.262
					c-0.75,0.104-1.474,0.142-2.143,0.142c-0.869,0-1.637-0.065-2.226-0.139c-0.672-0.085-1.198-0.188-1.52-0.261
					c0.078,0.245,0.171,0.487,0.284,0.724c0.002,0.006,0.005,0.013,0.008,0.017c0.014,0.027,0.027,0.056,0.041,0.084
					c0.013,0.027,0.027,0.054,0.041,0.079c0.004,0.007,0.007,0.015,0.01,0.021c0.189,0.356,0.417,0.684,0.675,0.968
					c0.9,0.984,1.816,1.139,1.825,1.141l0.015,0.002l0.013,0.005c0.009,0.003,0.821,0.265,2.057,0.265
					c1.216,0,2.409-0.245,3.545-0.729c0.842-0.431,1.639-1.085,2.033-1.668c0.305-0.452,0.526-0.934,0.656-1.434
					c0.07-0.266,0.125-0.693,0.092-1.141C256.555,477.042,256.163,477.279,255.633,477.537z"/>
				<path id="XMLID_11_" style="fill:#666666;" d="M252.322,471.655c-0.264-0.043-0.477-0.068-0.777-0.068
					c-0.279,0-0.626,0.023-1.089,0.071c-0.465,0.049-0.982,0.171-1.583,0.373c-0.842,0.282-1.604,0.724-2.204,1.28l-0.02,0.019
					c-0.089,0.081-0.275,0.254-0.488,0.525c-0.026,0.037-0.408,0.578-0.709,1.408c-0.226,0.622-0.216,1.527-0.216,1.537v0.002
					c0,0.212,0.012,0.423,0.035,0.632c0,0.005,0,0.007,0.001,0.011c0.003,0.027,0.007,0.053,0.01,0.079
					c0.018,0.144,0.043,0.291,0.074,0.438c0.438,0.112,3.048,0.721,5.966,0.314c1.829-0.255,3.218-0.795,4.061-1.204
					c0.701-0.34,1.151-0.647,1.325-0.774c-0.173-0.643-0.651-1.65-1.089-2.279C254.367,472.229,253.016,471.769,252.322,471.655z
					 M248.679,476.914c-0.971,0-1.759-0.787-1.759-1.759c0-0.972,0.788-1.76,1.759-1.76c0.973,0,1.761,0.788,1.761,1.76
					C250.439,476.127,249.652,476.914,248.679,476.914z M253.829,475.617c-0.601,0-1.089-0.489-1.089-1.09
					c0-0.602,0.487-1.089,1.089-1.089c0.6,0,1.089,0.487,1.089,1.089C254.918,475.128,254.429,475.617,253.829,475.617z"/>
			</g>
		</g>
	</g>
</g>
</svg>
